<?xml version="1.0" standalone="no"?>
<!DOCTYPE svg PUBLIC "-//W3C//DTD SVG 20010904//EN"
 "http://www.w3.org/TR/2001/REC-SVG-20010904/DTD/svg10.dtd">
<svg version="1.0" xmlns="http://www.w3.org/2000/svg"
 width="824.000000pt" height="824.000000pt" viewBox="0 0 824.000000 824.000000"
 preserveAspectRatio="xMidYMid meet">
<metadata>
Created by potrace 1.14, written by Peter Selinger 2001-2017
</metadata>
<g transform="translate(0.000000,824.000000) scale(0.100000,-0.100000)"
fill="#000000" stroke="none">
<path d="M3422 7178 c-26 -26 -3 -88 31 -88 24 0 57 31 57 54 0 29 -18 46 -50
46 -14 0 -31 -5 -38 -12z"/>
<path d="M5333 7063 c-12 -2 -36 -20 -54 -40 -27 -32 -31 -41 -26 -77 8 -57
52 -96 108 -96 54 0 109 51 109 100 0 72 -66 126 -137 113z"/>
<path d="M3860 6886 c-513 -66 -981 -263 -1380 -582 -113 -91 -297 -276 -392
-395 -470 -588 -670 -1357 -548 -2110 131 -806 611 -1498 1323 -1908 380 -219
784 -324 1247 -324 275 0 481 27 723 94 1002 281 1743 1135 1893 2184 26 177
26 595 1 770 -82 580 -350 1117 -759 1525 -209 209 -428 365 -693 495 -250
123 -486 198 -755 240 -143 23 -520 29 -660 11z m831 -336 c225 -22 461 -90
659 -189 209 -105 339 -200 495 -362 240 -250 376 -539 399 -849 l5 -75 -13
55 c-111 477 -468 889 -991 1145 -528 258 -1027 279 -1665 68 -91 -30 -172
-56 -180 -59 -51 -16 137 74 242 116 321 128 708 183 1049 150z m230 -314
c476 -108 939 -536 1168 -1077 59 -140 74 -188 28 -94 -288 596 -781 1008
-1412 1181 l-90 25 100 -6 c55 -3 148 -16 206 -29z m-566 -111 c87 -15 309
-75 302 -81 -1 -2 -48 4 -102 13 -143 23 -495 23 -630 0 -495 -86 -864 -295
-1198 -677 l-49 -55 37 60 c79 127 133 194 254 315 265 264 519 383 946 444
62 9 354 -3 440 -19z m65 -302 c125 -20 244 -55 358 -105 97 -42 268 -150 337
-212 32 -28 23 -24 -44 20 -409 270 -844 318 -1351 149 -120 -40 -187 -74 -90
-45 142 42 346 64 509 53 l116 -7 -155 -13 c-258 -21 -423 -61 -607 -148 -445
-210 -740 -662 -807 -1236 l-13 -114 -9 60 c-15 102 -10 350 10 444 55 266
172 488 364 692 357 380 857 547 1382 462z m-306 -732 c3 -5 -16 -12 -42 -16
-113 -16 -306 -96 -422 -175 -187 -127 -327 -329 -386 -556 -23 -89 -25 -113
-21 -234 4 -112 9 -148 31 -209 50 -143 133 -269 256 -390 64 -62 64 -63 20
-36 -350 216 -491 651 -339 1045 125 326 405 535 761 569 120 12 136 12 142 2z
m-2127 -466 c-17 -90 -20 -153 -21 -350 0 -224 2 -248 27 -368 83 -391 237
-682 506 -960 113 -117 200 -190 336 -281 55 -37 102 -70 105 -73 3 -2 -29 11
-70 30 -103 46 -304 172 -398 249 -471 384 -668 974 -537 1612 21 104 64 261
70 254 1 -2 -7 -52 -18 -113z m2289 40 c248 -93 386 -350 331 -612 -66 -308
-378 -485 -684 -388 -150 48 -278 176 -326 329 -31 100 -31 233 1 336 74 236
282 379 529 365 54 -3 106 -14 149 -30z m1614 -460 c45 -238 46 -487 1 -694
-136 -622 -664 -1132 -1306 -1261 -205 -42 -497 -37 -722 11 -82 18 -268 77
-200 64 501 -97 972 -20 1374 226 105 64 209 146 307 239 259 249 421 539 498
892 19 88 22 133 22 308 -1 211 1 197 -59 500 -3 14 11 -22 30 -79 19 -58 44
-150 55 -206z m-461 -233 c3 -398 -156 -694 -493 -922 -176 -119 -470 -211
-666 -209 l-65 0 120 25 c384 80 660 255 847 539 126 190 203 409 222 630 4
39 10 95 13 125 l7 55 7 -50 c4 -27 8 -115 8 -193z m-3194 33 c114 -379 269
-651 509 -890 340 -339 795 -538 1313 -575 133 -9 347 0 467 20 81 13 81 6 0
-14 -183 -46 -473 -59 -672 -31 -431 61 -830 255 -1121 544 -151 150 -266 316
-366 525 -71 149 -114 271 -150 433 -39 172 -34 169 20 -12z m3916 -104 c77
-789 -353 -1501 -1080 -1785 -85 -34 -305 -96 -334 -96 -7 0 33 18 88 39 424
161 732 404 968 761 217 329 325 700 328 1130 1 165 10 150 30 -49z m-4177
-879 c246 -412 586 -727 1017 -941 610 -304 1295 -353 1932 -140 225 75 409
167 632 316 93 62 54 24 -80 -77 -327 -248 -697 -401 -1098 -455 -179 -24
-547 -17 -727 14 -347 60 -641 167 -895 327 -258 162 -497 398 -668 659 -74
114 -183 333 -224 450 -48 137 -48 149 0 50 24 -49 74 -141 111 -203z"/>
<path d="M2096 6427 c-26 -19 -18 -61 12 -65 44 -7 67 32 36 62 -19 19 -25 20
-48 3z"/>
<path d="M6226 6368 c-21 -29 -20 -51 2 -78 36 -44 112 -17 112 40 0 56 -82
83 -114 38z"/>
<path d="M1563 5662 c-28 -4 -63 -47 -63 -77 0 -12 9 -34 21 -49 26 -33 88
-37 119 -6 21 21 26 69 10 100 -11 21 -55 37 -87 32z"/>
<path d="M1282 4998 c-27 -27 -6 -68 35 -68 24 0 43 26 35 50 -10 30 -48 40
-70 18z"/>
<path d="M7072 4908 c-28 -28 1 -64 44 -54 20 5 25 12 22 34 -2 20 -9 28 -28
30 -14 2 -31 -3 -38 -10z"/>
<path d="M7008 4231 c-28 -25 -33 -36 -33 -76 0 -40 5 -51 33 -76 48 -43 102
-41 149 6 32 32 35 39 30 78 -12 91 -112 128 -179 68z"/>
<path d="M1232 3333 c-33 -28 -37 -66 -10 -96 37 -42 72 -45 108 -9 35 36 38
60 9 96 -25 31 -76 35 -107 9z"/>
<path d="M6540 2720 c-11 -11 -20 -27 -20 -35 0 -21 45 -65 65 -65 19 0 65 44
65 62 0 52 -72 76 -110 38z"/>
<path d="M6028 1899 c-33 -19 -15 -69 24 -69 15 0 38 27 38 44 0 7 -31 36 -38
36 -4 0 -15 -5 -24 -11z"/>
<path d="M2324 1789 c-17 -5 -39 -17 -48 -28 -23 -25 -32 -92 -16 -120 14 -28
68 -61 98 -61 55 0 112 56 112 110 0 69 -75 120 -146 99z"/>
<path d="M5185 1538 c-78 -45 -49 -158 40 -158 49 0 85 36 85 85 0 66 -68 106
-125 73z"/>
<path d="M2967 1493 c-12 -12 -7 -50 8 -63 32 -27 82 23 55 55 -13 15 -51 20
-63 8z"/>
<path d="M3820 1356 c-19 -23 -8 -61 18 -64 44 -7 67 32 36 62 -19 20 -38 20
-54 2z"/>
</g>
</svg>
